<svg xmlns="http://www.w3.org/2000/svg" width="1024" height="1024" viewBox="0 0 1024 1024"><rect width="1024" height="1024" fill="#4285F4"/><polygon points="46.0,0.0 23.0,39.8 -23.0,39.8 -46.0,0.0 -23.0,-39.8 23.0,-39.8" fill="none" stroke="#FFFFFF" stroke-width="3" opacity="0.28"/><polygon points="184.0,0.0 161.0,39.8 115.0,39.8 92.0,0.0 115.0,-39.8 161.0,-39.8" fill="none" stroke="#FFFFFF" stroke-width="3" opacity="0.28"/><polygon points="322.0,0.0 299.0,39.8 253.0,39.8 230.0,0.0 253.0,-39.8 299.0,-39.8" fill="none" stroke="#FFFFFF" stroke-width="3" opacity="0.28"/><polygon points="460.0,0.0 437.0,39.8 391.0,39.8 368.0,0.0 391.0,-39.8 437.0,-39.8" fill="none" stroke="#FFFFFF" stroke-width="3" opacity="0.28"/><polygon points="598.0,0.0 575.0,39.8 529.0,39.8 506.0,0.0 529.0,-39.8 575.0,-39.8" fill="none" stroke="#FFFFFF" stroke-width="3" opacity="0.28"/><polygon points="736.0,0.0 713.0,39.8 667.0,39.8 644.0,0.0 667.0,-39.8 713.0,-39.8" fill="none" stroke="#FFFFFF" stroke-width="3" opacity="0.28"/><polygon points="874.0,0.0 851.0,39.8 805.0,39.8 782.0,0.0 805.0,-39.8 851.0,-39.8" fill="none" stroke="#FFFFFF" stroke-width="3" opacity="0.28"/><polygon points="1012.0,0.0 989.0,39.8 943.0,39.8 920.0,0.0 943.0,-39.8 989.0,-39.8" fill="none" stroke="#FFFFFF" stroke-width="3" opacity="0.28"/><polygon points="115.0,39.8 92.0,79.7 46.0,79.7 23.0,39.8 46.0,0.0 92.0,-0.0" fill="none" stroke="#FFFFFF" stroke-width="3" opacity="0.28"/><polygon points="253.0,39.8 230.0,79.7 184.0,79.7 161.0,39.8 184.0,0.0 230.0,-0.0" fill="none" stroke="#FFFFFF" stroke-width="3" opacity="0.28"/><polygon points="391.0,39.8 368.0,79.7 322.0,79.7 299.0,39.8 322.0,0.0 368.0,-0.0" fill="none" stroke="#FFFFFF" stroke-width="3" opacity="0.28"/><polygon points="529.0,39.8 506.0,79.7 460.0,79.7 437.0,39.8 460.0,0.0 506.0,-0.0" fill="none" stroke="#FFFFFF" stroke-width="3" opacity="0.28"/><polygon points="667.0,39.8 644.0,79.7 598.0,79.7 575.0,39.8 598.0,0.0 644.0,-0.0" fill="none" stroke="#FFFFFF" stroke-width="3" opacity="0.28"/><polygon points="805.0,39.8 782.0,79.7 736.0,79.7 713.0,39.8 736.0,0.0 782.0,-0.0" fill="none" stroke="#FFFFFF" stroke-width="3" opacity="0.28"/><polygon points="943.0,39.8 920.0,79.7 874.0,79.7 851.0,39.8 874.0,0.0 920.0,-0.0" fill="none" stroke="#FFFFFF" stroke-width="3" opacity="0.28"/><polygon points="1081.0,39.8 1058.0,79.7 1012.0,79.7 989.0,39.8 1012.0,0.0 1058.0,-0.0" fill="none" stroke="#FFFFFF" stroke-width="3" opacity="0.28"/><polygon points="46.0,79.7 23.0,119.5 -23.0,119.5 -46.0,79.7 -23.0,39.8 23.0,39.8" fill="none" stroke="#FFFFFF" stroke-width="3" opacity="0.28"/><polygon points="184.0,79.7 161.0,119.5 115.0,119.5 92.0,79.7 115.0,39.8 161.0,39.8" fill="none" stroke="#FFFFFF" stroke-width="3" opacity="0.28"/><polygon points="322.0,79.7 299.0,119.5 253.0,119.5 230.0,79.7 253.0,39.8 299.0,39.8" fill="none" stroke="#FFFFFF" stroke-width="3" opacity="0.28"/><polygon points="460.0,79.7 437.0,119.5 391.0,119.5 368.0,79.7 391.0,39.8 437.0,39.8" fill="none" stroke="#FFFFFF" stroke-width="3" opacity="0.28"/><polygon points="598.0,79.7 575.0,119.5 529.0,119.5 506.0,79.7 529.0,39.8 575.0,39.8" fill="none" stroke="#FFFFFF" stroke-width="3" opacity="0.28"/><polygon points="736.0,79.7 713.0,119.5 667.0,119.5 644.0,79.7 667.0,39.8 713.0,39.8" fill="none" stroke="#FFFFFF" stroke-width="3" opacity="0.28"/><polygon points="874.0,79.7 851.0,119.5 805.0,119.5 782.0,79.7 805.0,39.8 851.0,39.8" fill="none" stroke="#FFFFFF" stroke-width="3" opacity="0.28"/><polygon points="1012.0,79.7 989.0,119.5 943.0,119.5 920.0,79.7 943.0,39.8 989.0,39.8" fill="none" stroke="#FFFFFF" stroke-width="3" opacity="0.28"/><polygon points="115.0,119.5 92.0,159.3 46.0,159.3 23.0,119.5 46.0,79.7 92.0,79.7" fill="none" stroke="#FFFFFF" stroke-width="3" opacity="0.28"/><polygon points="253.0,119.5 230.0,159.3 184.0,159.3 161.0,119.5 184.0,79.7 230.0,79.7" fill="none" stroke="#FFFFFF" stroke-width="3" opacity="0.28"/><polygon points="391.0,119.5 368.0,159.3 322.0,159.3 299.0,119.5 322.0,79.7 368.0,79.7" fill="none" stroke="#FFFFFF" stroke-width="3" opacity="0.28"/><polygon points="529.0,119.5 506.0,159.3 460.0,159.3 437.0,119.5 460.0,79.7 506.0,79.7" fill="none" stroke="#FFFFFF" stroke-width="3" opacity="0.28"/><polygon points="667.0,119.5 644.0,159.3 598.0,159.3 575.0,119.5 598.0,79.7 644.0,79.7" fill="none" stroke="#FFFFFF" stroke-width="3" opacity="0.28"/><polygon points="805.0,119.5 782.0,159.3 736.0,159.3 713.0,119.5 736.0,79.7 782.0,79.7" fill="none" stroke="#FFFFFF" stroke-width="3" opacity="0.28"/><polygon points="943.0,119.5 920.0,159.3 874.0,159.3 851.0,119.5 874.0,79.7 920.0,79.7" fill="none" stroke="#FFFFFF" stroke-width="3" opacity="0.28"/><polygon points="1081.0,119.5 1058.0,159.3 1012.0,159.3 989.0,119.5 1012.0,79.7 1058.0,79.7" fill="none" stroke="#FFFFFF" stroke-width="3" opacity="0.28"/><polygon points="46.0,159.3 23.0,199.2 -23.0,199.2 -46.0,159.3 -23.0,119.5 23.0,119.5" fill="none" stroke="#FFFFFF" stroke-width="3" opacity="0.28"/><polygon points="184.0,159.3 161.0,199.2 115.0,199.2 92.0,159.3 115.0,119.5 161.0,119.5" fill="none" stroke="#FFFFFF" stroke-width="3" opacity="0.28"/><polygon points="322.0,159.3 299.0,199.2 253.0,199.2 230.0,159.3 253.0,119.5 299.0,119.5" fill="none" stroke="#FFFFFF" stroke-width="3" opacity="0.28"/><polygon points="460.0,159.3 437.0,199.2 391.0,199.2 368.0,159.3 391.0,119.5 437.0,119.5" fill="none" stroke="#FFFFFF" stroke-width="3" opacity="0.28"/><polygon points="598.0,159.3 575.0,199.2 529.0,199.2 506.0,159.3 529.0,119.5 575.0,119.5" fill="none" stroke="#FFFFFF" stroke-width="3" opacity="0.28"/><polygon points="736.0,159.3 713.0,199.2 667.0,199.2 644.0,159.3 667.0,119.5 713.0,119.5" fill="none" stroke="#FFFFFF" stroke-width="3" opacity="0.28"/><polygon points="874.0,159.3 851.0,199.2 805.0,199.2 782.0,159.3 805.0,119.5 851.0,119.5" fill="none" stroke="#FFFFFF" stroke-width="3" opacity="0.28"/><polygon points="1012.0,159.3 989.0,199.2 943.0,199.2 920.0,159.3 943.0,119.5 989.0,119.5" fill="none" stroke="#FFFFFF" stroke-width="3" opacity="0.28"/><polygon points="115.0,199.2 92.0,239.0 46.0,239.0 23.0,199.2 46.0,159.3 92.0,159.3" fill="none" stroke="#FFFFFF" stroke-width="3" opacity="0.28"/><polygon points="253.0,199.2 230.0,239.0 184.0,239.0 161.0,199.2 184.0,159.3 230.0,159.3" fill="none" stroke="#FFFFFF" stroke-width="3" opacity="0.28"/><polygon points="391.0,199.2 368.0,239.0 322.0,239.0 299.0,199.2 322.0,159.3 368.0,159.3" fill="none" stroke="#FFFFFF" stroke-width="3" opacity="0.28"/><polygon points="529.0,199.2 506.0,239.0 460.0,239.0 437.0,199.2 460.0,159.3 506.0,159.3" fill="none" stroke="#FFFFFF" stroke-width="3" opacity="0.28"/><polygon points="667.0,199.2 644.0,239.0 598.0,239.0 575.0,199.2 598.0,159.3 644.0,159.3" fill="none" stroke="#FFFFFF" stroke-width="3" opacity="0.28"/><polygon points="805.0,199.2 782.0,239.0 736.0,239.0 713.0,199.2 736.0,159.3 782.0,159.3" fill="none" stroke="#FFFFFF" stroke-width="3" opacity="0.28"/><polygon points="943.0,199.2 920.0,239.0 874.0,239.0 851.0,199.2 874.0,159.3 920.0,159.3" fill="none" stroke="#FFFFFF" stroke-width="3" opacity="0.28"/><polygon points="1081.0,199.2 1058.0,239.0 1012.0,239.0 989.0,199.2 1012.0,159.3 1058.0,159.3" fill="none" stroke="#FFFFFF" stroke-width="3" opacity="0.28"/><polygon points="46.0,239.0 23.0,278.9 -23.0,278.9 -46.0,239.0 -23.0,199.2 23.0,199.2" fill="none" stroke="#FFFFFF" stroke-width="3" opacity="0.28"/><polygon points="184.0,239.0 161.0,278.9 115.0,278.9 92.0,239.0 115.0,199.2 161.0,199.2" fill="none" stroke="#FFFFFF" stroke-width="3" opacity="0.28"/><polygon points="322.0,239.0 299.0,278.9 253.0,278.9 230.0,239.0 253.0,199.2 299.0,199.2" fill="none" stroke="#FFFFFF" stroke-width="3" opacity="0.28"/><polygon points="460.0,239.0 437.0,278.9 391.0,278.9 368.0,239.0 391.0,199.2 437.0,199.2" fill="none" stroke="#FFFFFF" stroke-width="3" opacity="0.28"/><polygon points="598.0,239.0 575.0,278.9 529.0,278.9 506.0,239.0 529.0,199.2 575.0,199.2" fill="none" stroke="#FFFFFF" stroke-width="3" opacity="0.28"/><polygon points="736.0,239.0 713.0,278.9 667.0,278.9 644.0,239.0 667.0,199.2 713.0,199.2" fill="none" stroke="#FFFFFF" stroke-width="3" opacity="0.28"/><polygon points="874.0,239.0 851.0,278.9 805.0,278.9 782.0,239.0 805.0,199.2 851.0,199.2" fill="none" stroke="#FFFFFF" stroke-width="3" opacity="0.28"/><polygon points="1012.0,239.0 989.0,278.9 943.0,278.9 920.0,239.0 943.0,199.2 989.0,199.2" fill="none" stroke="#FFFFFF" stroke-width="3" opacity="0.28"/><polygon points="115.0,278.9 92.0,318.7 46.0,318.7 23.0,278.9 46.0,239.0 92.0,239.0" fill="none" stroke="#FFFFFF" stroke-width="3" opacity="0.28"/><polygon points="253.0,278.9 230.0,318.7 184.0,318.7 161.0,278.9 184.0,239.0 230.0,239.0" fill="none" stroke="#FFFFFF" stroke-width="3" opacity="0.28"/><polygon points="391.0,278.9 368.0,318.7 322.0,318.7 299.0,278.9 322.0,239.0 368.0,239.0" fill="none" stroke="#FFFFFF" stroke-width="3" opacity="0.28"/><polygon points="529.0,278.9 506.0,318.7 460.0,318.7 437.0,278.9 460.0,239.0 506.0,239.0" fill="none" stroke="#FFFFFF" stroke-width="3" opacity="0.28"/><polygon points="667.0,278.9 644.0,318.7 598.0,318.7 575.0,278.9 598.0,239.0 644.0,239.0" fill="none" stroke="#FFFFFF" stroke-width="3" opacity="0.28"/><polygon points="805.0,278.9 782.0,318.7 736.0,318.7 713.0,278.9 736.0,239.0 782.0,239.0" fill="none" stroke="#FFFFFF" stroke-width="3" opacity="0.28"/><polygon points="943.0,278.9 920.0,318.7 874.0,318.7 851.0,278.9 874.0,239.0 920.0,239.0" fill="none" stroke="#FFFFFF" stroke-width="3" opacity="0.28"/><polygon points="1081.0,278.9 1058.0,318.7 1012.0,318.7 989.0,278.9 1012.0,239.0 1058.0,239.0" fill="none" stroke="#FFFFFF" stroke-width="3" opacity="0.28"/><polygon points="46.0,318.7 23.0,358.5 -23.0,358.5 -46.0,318.7 -23.0,278.9 23.0,278.9" fill="none" stroke="#FFFFFF" stroke-width="3" opacity="0.28"/><polygon points="184.0,318.7 161.0,358.5 115.0,358.5 92.0,318.7 115.0,278.9 161.0,278.9" fill="none" stroke="#FFFFFF" stroke-width="3" opacity="0.28"/><polygon points="322.0,318.7 299.0,358.5 253.0,358.5 230.0,318.7 253.0,278.9 299.0,278.9" fill="none" stroke="#FFFFFF" stroke-width="3" opacity="0.28"/><polygon points="460.0,318.7 437.0,358.5 391.0,358.5 368.0,318.7 391.0,278.9 437.0,278.9" fill="none" stroke="#FFFFFF" stroke-width="3" opacity="0.28"/><polygon points="598.0,318.7 575.0,358.5 529.0,358.5 506.0,318.7 529.0,278.9 575.0,278.9" fill="none" stroke="#FFFFFF" stroke-width="3" opacity="0.28"/><polygon points="736.0,318.7 713.0,358.5 667.0,358.5 644.0,318.7 667.0,278.9 713.0,278.9" fill="none" stroke="#FFFFFF" stroke-width="3" opacity="0.28"/><polygon points="874.0,318.7 851.0,358.5 805.0,358.5 782.0,318.7 805.0,278.9 851.0,278.9" fill="none" stroke="#FFFFFF" stroke-width="3" opacity="0.28"/><polygon points="1012.0,318.7 989.0,358.5 943.0,358.5 920.0,318.7 943.0,278.9 989.0,278.9" fill="none" stroke="#FFFFFF" stroke-width="3" opacity="0.28"/><polygon points="115.0,358.5 92.0,398.4 46.0,398.4 23.0,358.5 46.0,318.7 92.0,318.7" fill="none" stroke="#FFFFFF" stroke-width="3" opacity="0.28"/><polygon points="253.0,358.5 230.0,398.4 184.0,398.4 161.0,358.5 184.0,318.7 230.0,318.7" fill="none" stroke="#FFFFFF" stroke-width="3" opacity="0.28"/><polygon points="391.0,358.5 368.0,398.4 322.0,398.4 299.0,358.5 322.0,318.7 368.0,318.7" fill="none" stroke="#FFFFFF" stroke-width="3" opacity="0.28"/><polygon points="529.0,358.5 506.0,398.4 460.0,398.4 437.0,358.5 460.0,318.7 506.0,318.7" fill="none" stroke="#FFFFFF" stroke-width="3" opacity="0.28"/><polygon points="667.0,358.5 644.0,398.4 598.0,398.4 575.0,358.5 598.0,318.7 644.0,318.7" fill="none" stroke="#FFFFFF" stroke-width="3" opacity="0.28"/><polygon points="805.0,358.5 782.0,398.4 736.0,398.4 713.0,358.5 736.0,318.7 782.0,318.7" fill="none" stroke="#FFFFFF" stroke-width="3" opacity="0.28"/><polygon points="943.0,358.5 920.0,398.4 874.0,398.4 851.0,358.5 874.0,318.7 920.0,318.7" fill="none" stroke="#FFFFFF" stroke-width="3" opacity="0.28"/><polygon points="1081.0,358.5 1058.0,398.4 1012.0,398.4 989.0,358.5 1012.0,318.7 1058.0,318.7" fill="none" stroke="#FFFFFF" stroke-width="3" opacity="0.28"/><polygon points="46.0,398.4 23.0,438.2 -23.0,438.2 -46.0,398.4 -23.0,358.5 23.0,358.5" fill="none" stroke="#FFFFFF" stroke-width="3" opacity="0.28"/><polygon points="184.0,398.4 161.0,438.2 115.0,438.2 92.0,398.4 115.0,358.5 161.0,358.5" fill="none" stroke="#FFFFFF" stroke-width="3" opacity="0.28"/><polygon points="322.0,398.4 299.0,438.2 253.0,438.2 230.0,398.4 253.0,358.5 299.0,358.5" fill="none" stroke="#FFFFFF" stroke-width="3" opacity="0.28"/><polygon points="460.0,398.4 437.0,438.2 391.0,438.2 368.0,398.4 391.0,358.5 437.0,358.5" fill="none" stroke="#FFFFFF" stroke-width="3" opacity="0.28"/><polygon points="598.0,398.4 575.0,438.2 529.0,438.2 506.0,398.4 529.0,358.5 575.0,358.5" fill="none" stroke="#FFFFFF" stroke-width="3" opacity="0.28"/><polygon points="736.0,398.4 713.0,438.2 667.0,438.2 644.0,398.4 667.0,358.5 713.0,358.5" fill="none" stroke="#FFFFFF" stroke-width="3" opacity="0.28"/><polygon points="874.0,398.4 851.0,438.2 805.0,438.2 782.0,398.4 805.0,358.5 851.0,358.5" fill="none" stroke="#FFFFFF" stroke-width="3" opacity="0.28"/><polygon points="1012.0,398.4 989.0,438.2 943.0,438.2 920.0,398.4 943.0,358.5 989.0,358.5" fill="none" stroke="#FFFFFF" stroke-width="3" opacity="0.28"/><polygon points="115.0,438.2 92.0,478.0 46.0,478.0 23.0,438.2 46.0,398.4 92.0,398.4" fill="none" stroke="#FFFFFF" stroke-width="3" opacity="0.28"/><polygon points="253.0,438.2 230.0,478.0 184.0,478.0 161.0,438.2 184.0,398.4 230.0,398.4" fill="none" stroke="#FFFFFF" stroke-width="3" opacity="0.28"/><polygon points="391.0,438.2 368.0,478.0 322.0,478.0 299.0,438.2 322.0,398.4 368.0,398.4" fill="none" stroke="#FFFFFF" stroke-width="3" opacity="0.28"/><polygon points="529.0,438.2 506.0,478.0 460.0,478.0 437.0,438.2 460.0,398.4 506.0,398.4" fill="none" stroke="#FFFFFF" stroke-width="3" opacity="0.28"/><polygon points="667.0,438.2 644.0,478.0 598.0,478.0 575.0,438.2 598.0,398.4 644.0,398.4" fill="none" stroke="#FFFFFF" stroke-width="3" opacity="0.28"/><polygon points="805.0,438.2 782.0,478.0 736.0,478.0 713.0,438.2 736.0,398.4 782.0,398.4" fill="none" stroke="#FFFFFF" stroke-width="3" opacity="0.28"/><polygon points="943.0,438.2 920.0,478.0 874.0,478.0 851.0,438.2 874.0,398.4 920.0,398.4" fill="none" stroke="#FFFFFF" stroke-width="3" opacity="0.28"/><polygon points="1081.0,438.2 1058.0,478.0 1012.0,478.0 989.0,438.2 1012.0,398.4 1058.0,398.4" fill="none" stroke="#FFFFFF" stroke-width="3" opacity="0.28"/><polygon points="46.0,478.0 23.0,517.9 -23.0,517.9 -46.0,478.0 -23.0,438.2 23.0,438.2" fill="none" stroke="#FFFFFF" stroke-width="3" opacity="0.28"/><polygon points="184.0,478.0 161.0,517.9 115.0,517.9 92.0,478.0 115.0,438.2 161.0,438.2" fill="none" stroke="#FFFFFF" stroke-width="3" opacity="0.28"/><polygon points="322.0,478.0 299.0,517.9 253.0,517.9 230.0,478.0 253.0,438.2 299.0,438.2" fill="none" stroke="#FFFFFF" stroke-width="3" opacity="0.28"/><polygon points="460.0,478.0 437.0,517.9 391.0,517.9 368.0,478.0 391.0,438.2 437.0,438.2" fill="none" stroke="#FFFFFF" stroke-width="3" opacity="0.28"/><polygon points="598.0,478.0 575.0,517.9 529.0,517.9 506.0,478.0 529.0,438.2 575.0,438.2" fill="none" stroke="#FFFFFF" stroke-width="3" opacity="0.28"/><polygon points="736.0,478.0 713.0,517.9 667.0,517.9 644.0,478.0 667.0,438.2 713.0,438.2" fill="none" stroke="#FFFFFF" stroke-width="3" opacity="0.28"/><polygon points="874.0,478.0 851.0,517.9 805.0,517.9 782.0,478.0 805.0,438.2 851.0,438.2" fill="none" stroke="#FFFFFF" stroke-width="3" opacity="0.28"/><polygon points="1012.0,478.0 989.0,517.9 943.0,517.9 920.0,478.0 943.0,438.2 989.0,438.2" fill="none" stroke="#FFFFFF" stroke-width="3" opacity="0.28"/><polygon points="115.0,517.9 92.0,557.7 46.0,557.7 23.0,517.9 46.0,478.0 92.0,478.0" fill="none" stroke="#FFFFFF" stroke-width="3" opacity="0.28"/><polygon points="253.0,517.9 230.0,557.7 184.0,557.7 161.0,517.9 184.0,478.0 230.0,478.0" fill="none" stroke="#FFFFFF" stroke-width="3" opacity="0.28"/><polygon points="391.0,517.9 368.0,557.7 322.0,557.7 299.0,517.9 322.0,478.0 368.0,478.0" fill="none" stroke="#FFFFFF" stroke-width="3" opacity="0.28"/><polygon points="529.0,517.9 506.0,557.7 460.0,557.7 437.0,517.9 460.0,478.0 506.0,478.0" fill="none" stroke="#FFFFFF" stroke-width="3" opacity="0.28"/><polygon points="667.0,517.9 644.0,557.7 598.0,557.7 575.0,517.9 598.0,478.0 644.0,478.0" fill="none" stroke="#FFFFFF" stroke-width="3" opacity="0.28"/><polygon points="805.0,517.9 782.0,557.7 736.0,557.7 713.0,517.9 736.0,478.0 782.0,478.0" fill="none" stroke="#FFFFFF" stroke-width="3" opacity="0.28"/><polygon points="943.0,517.9 920.0,557.7 874.0,557.7 851.0,517.9 874.0,478.0 920.0,478.0" fill="none" stroke="#FFFFFF" stroke-width="3" opacity="0.28"/><polygon points="1081.0,517.9 1058.0,557.7 1012.0,557.7 989.0,517.9 1012.0,478.0 1058.0,478.0" fill="none" stroke="#FFFFFF" stroke-width="3" opacity="0.28"/><polygon points="46.0,557.7 23.0,597.6 -23.0,597.6 -46.0,557.7 -23.0,517.9 23.0,517.9" fill="none" stroke="#FFFFFF" stroke-width="3" opacity="0.28"/><polygon points="184.0,557.7 161.0,597.6 115.0,597.6 92.0,557.7 115.0,517.9 161.0,517.9" fill="none" stroke="#FFFFFF" stroke-width="3" opacity="0.28"/><polygon points="322.0,557.7 299.0,597.6 253.0,597.6 230.0,557.7 253.0,517.9 299.0,517.9" fill="none" stroke="#FFFFFF" stroke-width="3" opacity="0.28"/><polygon points="460.0,557.7 437.0,597.6 391.0,597.6 368.0,557.7 391.0,517.9 437.0,517.9" fill="none" stroke="#FFFFFF" stroke-width="3" opacity="0.28"/><polygon points="598.0,557.7 575.0,597.6 529.0,597.6 506.0,557.7 529.0,517.9 575.0,517.9" fill="none" stroke="#FFFFFF" stroke-width="3" opacity="0.28"/><polygon points="736.0,557.7 713.0,597.6 667.0,597.6 644.0,557.7 667.0,517.9 713.0,517.9" fill="none" stroke="#FFFFFF" stroke-width="3" opacity="0.28"/><polygon points="874.0,557.7 851.0,597.6 805.0,597.6 782.0,557.7 805.0,517.9 851.0,517.9" fill="none" stroke="#FFFFFF" stroke-width="3" opacity="0.28"/><polygon points="1012.0,557.7 989.0,597.6 943.0,597.6 920.0,557.7 943.0,517.9 989.0,517.9" fill="none" stroke="#FFFFFF" stroke-width="3" opacity="0.28"/><polygon points="115.0,597.6 92.0,637.4 46.0,637.4 23.0,597.6 46.0,557.7 92.0,557.7" fill="none" stroke="#FFFFFF" stroke-width="3" opacity="0.28"/><polygon points="253.0,597.6 230.0,637.4 184.0,637.4 161.0,597.6 184.0,557.7 230.0,557.7" fill="none" stroke="#FFFFFF" stroke-width="3" opacity="0.28"/><polygon points="391.0,597.6 368.0,637.4 322.0,637.4 299.0,597.6 322.0,557.7 368.0,557.7" fill="none" stroke="#FFFFFF" stroke-width="3" opacity="0.28"/><polygon points="529.0,597.6 506.0,637.4 460.0,637.4 437.0,597.6 460.0,557.7 506.0,557.7" fill="none" stroke="#FFFFFF" stroke-width="3" opacity="0.28"/><polygon points="667.0,597.6 644.0,637.4 598.0,637.4 575.0,597.6 598.0,557.7 644.0,557.7" fill="none" stroke="#FFFFFF" stroke-width="3" opacity="0.28"/><polygon points="805.0,597.6 782.0,637.4 736.0,637.4 713.0,597.6 736.0,557.7 782.0,557.7" fill="none" stroke="#FFFFFF" stroke-width="3" opacity="0.28"/><polygon points="943.0,597.6 920.0,637.4 874.0,637.4 851.0,597.6 874.0,557.7 920.0,557.7" fill="none" stroke="#FFFFFF" stroke-width="3" opacity="0.28"/><polygon points="1081.0,597.6 1058.0,637.4 1012.0,637.4 989.0,597.6 1012.0,557.7 1058.0,557.7" fill="none" stroke="#FFFFFF" stroke-width="3" opacity="0.28"/><polygon points="46.0,637.4 23.0,677.2 -23.0,677.2 -46.0,637.4 -23.0,597.6 23.0,597.6" fill="none" stroke="#FFFFFF" stroke-width="3" opacity="0.28"/><polygon points="184.0,637.4 161.0,677.2 115.0,677.2 92.0,637.4 115.0,597.6 161.0,597.6" fill="none" stroke="#FFFFFF" stroke-width="3" opacity="0.28"/><polygon points="322.0,637.4 299.0,677.2 253.0,677.2 230.0,637.4 253.0,597.6 299.0,597.6" fill="none" stroke="#FFFFFF" stroke-width="3" opacity="0.28"/><polygon points="460.0,637.4 437.0,677.2 391.0,677.2 368.0,637.4 391.0,597.6 437.0,597.6" fill="none" stroke="#FFFFFF" stroke-width="3" opacity="0.28"/><polygon points="598.0,637.4 575.0,677.2 529.0,677.2 506.0,637.4 529.0,597.6 575.0,597.6" fill="none" stroke="#FFFFFF" stroke-width="3" opacity="0.28"/><polygon points="736.0,637.4 713.0,677.2 667.0,677.2 644.0,637.4 667.0,597.6 713.0,597.6" fill="none" stroke="#FFFFFF" stroke-width="3" opacity="0.28"/><polygon points="874.0,637.4 851.0,677.2 805.0,677.2 782.0,637.4 805.0,597.6 851.0,597.6" fill="none" stroke="#FFFFFF" stroke-width="3" opacity="0.28"/><polygon points="1012.0,637.4 989.0,677.2 943.0,677.2 920.0,637.4 943.0,597.6 989.0,597.6" fill="none" stroke="#FFFFFF" stroke-width="3" opacity="0.28"/><polygon points="115.0,677.2 92.0,717.1 46.0,717.1 23.0,677.2 46.0,637.4 92.0,637.4" fill="none" stroke="#FFFFFF" stroke-width="3" opacity="0.28"/><polygon points="253.0,677.2 230.0,717.1 184.0,717.1 161.0,677.2 184.0,637.4 230.0,637.4" fill="none" stroke="#FFFFFF" stroke-width="3" opacity="0.28"/><polygon points="391.0,677.2 368.0,717.1 322.0,717.1 299.0,677.2 322.0,637.4 368.0,637.4" fill="none" stroke="#FFFFFF" stroke-width="3" opacity="0.28"/><polygon points="529.0,677.2 506.0,717.1 460.0,717.1 437.0,677.2 460.0,637.4 506.0,637.4" fill="none" stroke="#FFFFFF" stroke-width="3" opacity="0.28"/><polygon points="667.0,677.2 644.0,717.1 598.0,717.1 575.0,677.2 598.0,637.4 644.0,637.4" fill="none" stroke="#FFFFFF" stroke-width="3" opacity="0.28"/><polygon points="805.0,677.2 782.0,717.1 736.0,717.1 713.0,677.2 736.0,637.4 782.0,637.4" fill="none" stroke="#FFFFFF" stroke-width="3" opacity="0.28"/><polygon points="943.0,677.2 920.0,717.1 874.0,717.1 851.0,677.2 874.0,637.4 920.0,637.4" fill="none" stroke="#FFFFFF" stroke-width="3" opacity="0.28"/><polygon points="1081.0,677.2 1058.0,717.1 1012.0,717.1 989.0,677.2 1012.0,637.4 1058.0,637.4" fill="none" stroke="#FFFFFF" stroke-width="3" opacity="0.28"/><polygon points="46.0,717.1 23.0,756.9 -23.0,756.9 -46.0,717.1 -23.0,677.2 23.0,677.2" fill="none" stroke="#FFFFFF" stroke-width="3" opacity="0.28"/><polygon points="184.0,717.1 161.0,756.9 115.0,756.9 92.0,717.1 115.0,677.2 161.0,677.2" fill="none" stroke="#FFFFFF" stroke-width="3" opacity="0.28"/><polygon points="322.0,717.1 299.0,756.9 253.0,756.9 230.0,717.1 253.0,677.2 299.0,677.2" fill="none" stroke="#FFFFFF" stroke-width="3" opacity="0.28"/><polygon points="460.0,717.1 437.0,756.9 391.0,756.9 368.0,717.1 391.0,677.2 437.0,677.2" fill="none" stroke="#FFFFFF" stroke-width="3" opacity="0.28"/><polygon points="598.0,717.1 575.0,756.9 529.0,756.9 506.0,717.1 529.0,677.2 575.0,677.2" fill="none" stroke="#FFFFFF" stroke-width="3" opacity="0.28"/><polygon points="736.0,717.1 713.0,756.9 667.0,756.9 644.0,717.1 667.0,677.2 713.0,677.2" fill="none" stroke="#FFFFFF" stroke-width="3" opacity="0.28"/><polygon points="874.0,717.1 851.0,756.9 805.0,756.9 782.0,717.1 805.0,677.2 851.0,677.2" fill="none" stroke="#FFFFFF" stroke-width="3" opacity="0.28"/><polygon points="1012.0,717.1 989.0,756.9 943.0,756.9 920.0,717.1 943.0,677.2 989.0,677.2" fill="none" stroke="#FFFFFF" stroke-width="3" opacity="0.28"/><polygon points="115.0,756.9 92.0,796.7 46.0,796.7 23.0,756.9 46.0,717.1 92.0,717.1" fill="none" stroke="#FFFFFF" stroke-width="3" opacity="0.28"/><polygon points="253.0,756.9 230.0,796.7 184.0,796.7 161.0,756.9 184.0,717.1 230.0,717.1" fill="none" stroke="#FFFFFF" stroke-width="3" opacity="0.28"/><polygon points="391.0,756.9 368.0,796.7 322.0,796.7 299.0,756.9 322.0,717.1 368.0,717.1" fill="none" stroke="#FFFFFF" stroke-width="3" opacity="0.28"/><polygon points="529.0,756.9 506.0,796.7 460.0,796.7 437.0,756.9 460.0,717.1 506.0,717.1" fill="none" stroke="#FFFFFF" stroke-width="3" opacity="0.28"/><polygon points="667.0,756.9 644.0,796.7 598.0,796.7 575.0,756.9 598.0,717.1 644.0,717.1" fill="none" stroke="#FFFFFF" stroke-width="3" opacity="0.28"/><polygon points="805.0,756.9 782.0,796.7 736.0,796.7 713.0,756.9 736.0,717.1 782.0,717.1" fill="none" stroke="#FFFFFF" stroke-width="3" opacity="0.28"/><polygon points="943.0,756.9 920.0,796.7 874.0,796.7 851.0,756.9 874.0,717.1 920.0,717.1" fill="none" stroke="#FFFFFF" stroke-width="3" opacity="0.28"/><polygon points="1081.0,756.9 1058.0,796.7 1012.0,796.7 989.0,756.9 1012.0,717.1 1058.0,717.1" fill="none" stroke="#FFFFFF" stroke-width="3" opacity="0.28"/><polygon points="46.0,796.7 23.0,836.6 -23.0,836.6 -46.0,796.7 -23.0,756.9 23.0,756.9" fill="none" stroke="#FFFFFF" stroke-width="3" opacity="0.28"/><polygon points="184.0,796.7 161.0,836.6 115.0,836.6 92.0,796.7 115.0,756.9 161.0,756.9" fill="none" stroke="#FFFFFF" stroke-width="3" opacity="0.28"/><polygon points="322.0,796.7 299.0,836.6 253.0,836.6 230.0,796.7 253.0,756.9 299.0,756.9" fill="none" stroke="#FFFFFF" stroke-width="3" opacity="0.28"/><polygon points="460.0,796.7 437.0,836.6 391.0,836.6 368.0,796.7 391.0,756.9 437.0,756.9" fill="none" stroke="#FFFFFF" stroke-width="3" opacity="0.28"/><polygon points="598.0,796.7 575.0,836.6 529.0,836.6 506.0,796.7 529.0,756.9 575.0,756.9" fill="none" stroke="#FFFFFF" stroke-width="3" opacity="0.28"/><polygon points="736.0,796.7 713.0,836.6 667.0,836.6 644.0,796.7 667.0,756.9 713.0,756.9" fill="none" stroke="#FFFFFF" stroke-width="3" opacity="0.28"/><polygon points="874.0,796.7 851.0,836.6 805.0,836.6 782.0,796.7 805.0,756.9 851.0,756.9" fill="none" stroke="#FFFFFF" stroke-width="3" opacity="0.28"/><polygon points="1012.0,796.7 989.0,836.6 943.0,836.6 920.0,796.7 943.0,756.9 989.0,756.9" fill="none" stroke="#FFFFFF" stroke-width="3" opacity="0.28"/><polygon points="115.0,836.6 92.0,876.4 46.0,876.4 23.0,836.6 46.0,796.7 92.0,796.7" fill="none" stroke="#FFFFFF" stroke-width="3" opacity="0.28"/><polygon points="253.0,836.6 230.0,876.4 184.0,876.4 161.0,836.6 184.0,796.7 230.0,796.7" fill="none" stroke="#FFFFFF" stroke-width="3" opacity="0.28"/><polygon points="391.0,836.6 368.0,876.4 322.0,876.4 299.0,836.6 322.0,796.7 368.0,796.7" fill="none" stroke="#FFFFFF" stroke-width="3" opacity="0.28"/><polygon points="529.0,836.6 506.0,876.4 460.0,876.4 437.0,836.6 460.0,796.7 506.0,796.7" fill="none" stroke="#FFFFFF" stroke-width="3" opacity="0.28"/><polygon points="667.0,836.6 644.0,876.4 598.0,876.4 575.0,836.6 598.0,796.7 644.0,796.7" fill="none" stroke="#FFFFFF" stroke-width="3" opacity="0.28"/><polygon points="805.0,836.6 782.0,876.4 736.0,876.4 713.0,836.6 736.0,796.7 782.0,796.7" fill="none" stroke="#FFFFFF" stroke-width="3" opacity="0.28"/><polygon points="943.0,836.6 920.0,876.4 874.0,876.4 851.0,836.6 874.0,796.7 920.0,796.7" fill="none" stroke="#FFFFFF" stroke-width="3" opacity="0.28"/><polygon points="1081.0,836.6 1058.0,876.4 1012.0,876.4 989.0,836.6 1012.0,796.7 1058.0,796.7" fill="none" stroke="#FFFFFF" stroke-width="3" opacity="0.28"/><polygon points="46.0,876.4 23.0,916.3 -23.0,916.3 -46.0,876.4 -23.0,836.6 23.0,836.6" fill="none" stroke="#FFFFFF" stroke-width="3" opacity="0.28"/><polygon points="184.0,876.4 161.0,916.3 115.0,916.3 92.0,876.4 115.0,836.6 161.0,836.6" fill="none" stroke="#FFFFFF" stroke-width="3" opacity="0.28"/><polygon points="322.0,876.4 299.0,916.3 253.0,916.3 230.0,876.4 253.0,836.6 299.0,836.6" fill="none" stroke="#FFFFFF" stroke-width="3" opacity="0.28"/><polygon points="460.0,876.4 437.0,916.3 391.0,916.3 368.0,876.4 391.0,836.6 437.0,836.6" fill="none" stroke="#FFFFFF" stroke-width="3" opacity="0.28"/><polygon points="598.0,876.4 575.0,916.3 529.0,916.3 506.0,876.4 529.0,836.6 575.0,836.6" fill="none" stroke="#FFFFFF" stroke-width="3" opacity="0.28"/><polygon points="736.0,876.4 713.0,916.3 667.0,916.3 644.0,876.4 667.0,836.6 713.0,836.6" fill="none" stroke="#FFFFFF" stroke-width="3" opacity="0.28"/><polygon points="874.0,876.4 851.0,916.3 805.0,916.3 782.0,876.4 805.0,836.6 851.0,836.6" fill="none" stroke="#FFFFFF" stroke-width="3" opacity="0.28"/><polygon points="1012.0,876.4 989.0,916.3 943.0,916.3 920.0,876.4 943.0,836.6 989.0,836.6" fill="none" stroke="#FFFFFF" stroke-width="3" opacity="0.28"/><polygon points="115.0,916.3 92.0,956.1 46.0,956.1 23.0,916.3 46.0,876.4 92.0,876.4" fill="none" stroke="#FFFFFF" stroke-width="3" opacity="0.28"/><polygon points="253.0,916.3 230.0,956.1 184.0,956.1 161.0,916.3 184.0,876.4 230.0,876.4" fill="none" stroke="#FFFFFF" stroke-width="3" opacity="0.28"/><polygon points="391.0,916.3 368.0,956.1 322.0,956.1 299.0,916.3 322.0,876.4 368.0,876.4" fill="none" stroke="#FFFFFF" stroke-width="3" opacity="0.28"/><polygon points="529.0,916.3 506.0,956.1 460.0,956.1 437.0,916.3 460.0,876.4 506.0,876.4" fill="none" stroke="#FFFFFF" stroke-width="3" opacity="0.28"/><polygon points="667.0,916.3 644.0,956.1 598.0,956.1 575.0,916.3 598.0,876.4 644.0,876.4" fill="none" stroke="#FFFFFF" stroke-width="3" opacity="0.28"/><polygon points="805.0,916.3 782.0,956.1 736.0,956.1 713.0,916.3 736.0,876.4 782.0,876.4" fill="none" stroke="#FFFFFF" stroke-width="3" opacity="0.28"/><polygon points="943.0,916.3 920.0,956.1 874.0,956.1 851.0,916.3 874.0,876.4 920.0,876.4" fill="none" stroke="#FFFFFF" stroke-width="3" opacity="0.28"/><polygon points="1081.0,916.3 1058.0,956.1 1012.0,956.1 989.0,916.3 1012.0,876.4 1058.0,876.4" fill="none" stroke="#FFFFFF" stroke-width="3" opacity="0.28"/><polygon points="46.0,956.1 23.0,995.9 -23.0,995.9 -46.0,956.1 -23.0,916.3 23.0,916.3" fill="none" stroke="#FFFFFF" stroke-width="3" opacity="0.28"/><polygon points="184.0,956.1 161.0,995.9 115.0,995.9 92.0,956.1 115.0,916.3 161.0,916.3" fill="none" stroke="#FFFFFF" stroke-width="3" opacity="0.28"/><polygon points="322.0,956.1 299.0,995.9 253.0,995.9 230.0,956.1 253.0,916.3 299.0,916.3" fill="none" stroke="#FFFFFF" stroke-width="3" opacity="0.28"/><polygon points="460.0,956.1 437.0,995.9 391.0,995.9 368.0,956.1 391.0,916.3 437.0,916.3" fill="none" stroke="#FFFFFF" stroke-width="3" opacity="0.28"/><polygon points="598.0,956.1 575.0,995.9 529.0,995.9 506.0,956.1 529.0,916.3 575.0,916.3" fill="none" stroke="#FFFFFF" stroke-width="3" opacity="0.28"/><polygon points="736.0,956.1 713.0,995.9 667.0,995.9 644.0,956.1 667.0,916.3 713.0,916.3" fill="none" stroke="#FFFFFF" stroke-width="3" opacity="0.28"/><polygon points="874.0,956.1 851.0,995.9 805.0,995.9 782.0,956.1 805.0,916.3 851.0,916.3" fill="none" stroke="#FFFFFF" stroke-width="3" opacity="0.28"/><polygon points="1012.0,956.1 989.0,995.9 943.0,995.9 920.0,956.1 943.0,916.3 989.0,916.3" fill="none" stroke="#FFFFFF" stroke-width="3" opacity="0.28"/><polygon points="115.0,995.9 92.0,1035.8 46.0,1035.8 23.0,995.9 46.0,956.1 92.0,956.1" fill="none" stroke="#FFFFFF" stroke-width="3" opacity="0.28"/><polygon points="253.0,995.9 230.0,1035.8 184.0,1035.8 161.0,995.9 184.0,956.1 230.0,956.1" fill="none" stroke="#FFFFFF" stroke-width="3" opacity="0.28"/><polygon points="391.0,995.9 368.0,1035.8 322.0,1035.8 299.0,995.9 322.0,956.1 368.0,956.1" fill="none" stroke="#FFFFFF" stroke-width="3" opacity="0.28"/><polygon points="529.0,995.9 506.0,1035.8 460.0,1035.8 437.0,995.9 460.0,956.1 506.0,956.1" fill="none" stroke="#FFFFFF" stroke-width="3" opacity="0.28"/><polygon points="667.0,995.9 644.0,1035.8 598.0,1035.8 575.0,995.9 598.0,956.1 644.0,956.1" fill="none" stroke="#FFFFFF" stroke-width="3" opacity="0.28"/><polygon points="805.0,995.9 782.0,1035.8 736.0,1035.8 713.0,995.9 736.0,956.1 782.0,956.1" fill="none" stroke="#FFFFFF" stroke-width="3" opacity="0.28"/><polygon points="943.0,995.9 920.0,1035.8 874.0,1035.8 851.0,995.9 874.0,956.1 920.0,956.1" fill="none" stroke="#FFFFFF" stroke-width="3" opacity="0.28"/><polygon points="1081.0,995.9 1058.0,1035.8 1012.0,1035.8 989.0,995.9 1012.0,956.1 1058.0,956.1" fill="none" stroke="#FFFFFF" stroke-width="3" opacity="0.28"/><polygon points="46.0,1035.8 23.0,1075.6 -23.0,1075.6 -46.0,1035.8 -23.0,995.9 23.0,995.9" fill="none" stroke="#FFFFFF" stroke-width="3" opacity="0.28"/><polygon points="184.0,1035.8 161.0,1075.6 115.0,1075.6 92.0,1035.8 115.0,995.9 161.0,995.9" fill="none" stroke="#FFFFFF" stroke-width="3" opacity="0.28"/><polygon points="322.0,1035.8 299.0,1075.6 253.0,1075.6 230.0,1035.8 253.0,995.9 299.0,995.9" fill="none" stroke="#FFFFFF" stroke-width="3" opacity="0.28"/><polygon points="460.0,1035.8 437.0,1075.6 391.0,1075.6 368.0,1035.8 391.0,995.9 437.0,995.9" fill="none" stroke="#FFFFFF" stroke-width="3" opacity="0.28"/><polygon points="598.0,1035.8 575.0,1075.6 529.0,1075.6 506.0,1035.8 529.0,995.9 575.0,995.9" fill="none" stroke="#FFFFFF" stroke-width="3" opacity="0.28"/><polygon points="736.0,1035.8 713.0,1075.6 667.0,1075.6 644.0,1035.8 667.0,995.9 713.0,995.9" fill="none" stroke="#FFFFFF" stroke-width="3" opacity="0.28"/><polygon points="874.0,1035.8 851.0,1075.6 805.0,1075.6 782.0,1035.8 805.0,995.9 851.0,995.9" fill="none" stroke="#FFFFFF" stroke-width="3" opacity="0.28"/><polygon points="1012.0,1035.8 989.0,1075.6 943.0,1075.6 920.0,1035.8 943.0,995.9 989.0,995.9" fill="none" stroke="#FFFFFF" stroke-width="3" opacity="0.28"/><polygon points="115.0,1075.6 92.0,1115.4 46.0,1115.4 23.0,1075.6 46.0,1035.8 92.0,1035.8" fill="none" stroke="#FFFFFF" stroke-width="3" opacity="0.28"/><polygon points="253.0,1075.6 230.0,1115.4 184.0,1115.4 161.0,1075.6 184.0,1035.8 230.0,1035.8" fill="none" stroke="#FFFFFF" stroke-width="3" opacity="0.28"/><polygon points="391.0,1075.6 368.0,1115.4 322.0,1115.4 299.0,1075.6 322.0,1035.8 368.0,1035.8" fill="none" stroke="#FFFFFF" stroke-width="3" opacity="0.28"/><polygon points="529.0,1075.6 506.0,1115.4 460.0,1115.4 437.0,1075.6 460.0,1035.8 506.0,1035.8" fill="none" stroke="#FFFFFF" stroke-width="3" opacity="0.28"/><polygon points="667.0,1075.6 644.0,1115.4 598.0,1115.4 575.0,1075.6 598.0,1035.8 644.0,1035.8" fill="none" stroke="#FFFFFF" stroke-width="3" opacity="0.28"/><polygon points="805.0,1075.6 782.0,1115.4 736.0,1115.4 713.0,1075.6 736.0,1035.8 782.0,1035.8" fill="none" stroke="#FFFFFF" stroke-width="3" opacity="0.28"/><polygon points="943.0,1075.6 920.0,1115.4 874.0,1115.4 851.0,1075.6 874.0,1035.8 920.0,1035.8" fill="none" stroke="#FFFFFF" stroke-width="3" opacity="0.28"/><polygon points="1081.0,1075.6 1058.0,1115.4 1012.0,1115.4 989.0,1075.6 1012.0,1035.8 1058.0,1035.8" fill="none" stroke="#FFFFFF" stroke-width="3" opacity="0.28"/></svg>